<svg xmlns="http://www.w3.org/2000/svg" width="99" height="26"><g id="surface1"><path style="stroke:none;fill-rule:nonzero;fill:#ff0e78;fill-opacity:1" d="M2.234 4.398c-.437 0-.824-.093-1.156-.28a1.997 1.997 0 0 1-.789-.782A2.236 2.236 0 0 1 0 2.199c0-.437.098-.82.297-1.148.2-.328.469-.586.808-.77.34-.187.72-.281 1.13-.281.433 0 .824.098 1.163.29.34.19.602.456.79.792.187.332.277.707.277 1.117 0 .426-.094.809-.285 1.149-.196.34-.461.601-.801.78-.34.18-.723.27-1.145.27"></path><path style="stroke:none;fill-rule:nonzero;fill:#351647;fill-opacity:1" d="M.559 11.496H3.91V25.52H.56ZM9.605 11.496h2.907l.27 2.008a4.872 4.872 0 0 1 1.105-1.305c.445-.367.949-.644 1.523-.836a5.519 5.519 0 0 1 1.797-.293c1.117 0 2.086.258 2.91.774a4.937 4.937 0 0 1 1.867 2.133c.422.906.633 1.937.633 3.093v8.45H19.27v-8.41c0-.528-.118-1.008-.356-1.446a2.714 2.714 0 0 0-1.02-1.05 2.894 2.894 0 0 0-1.511-.4c-.63 0-1.207.153-1.735.454a3.319 3.319 0 0 0-1.23 1.207 3.127 3.127 0 0 0-.445 1.621v8.024H9.605ZM33.281 25.52c-.922 0-1.722-.172-2.406-.512a3.623 3.623 0 0 1-1.578-1.504c-.371-.664-.559-1.457-.559-2.383v-6.539h-2.27v-3.086h2.27l.676-4.031h2.676v4.031h2.754v3.086H32.09v6.25c0 .309.07.59.21.84.141.25.333.441.579.578.242.133.508.203.789.203h1.176v3.067ZM39.613 11.496h2.91l.25 1.832c.32-.488.7-.906 1.145-1.254a4.46 4.46 0 0 1 1.434-.761 5.53 5.53 0 0 1 1.656-.243c.898 0 1.699.203 2.406.602a4.33 4.33 0 0 1 1.656 1.637 5.544 5.544 0 0 1 1.907-1.63c.77-.406 1.628-.609 2.578-.609 1.183 0 2.199.254 3.054.754a5.065 5.065 0 0 1 1.961 2.055c.457.867.684 1.84.684 2.922v8.719h-3.328v-8.7c0-.476-.13-.914-.38-1.312a2.71 2.71 0 0 0-.991-.945c-.41-.231-.86-.348-1.348-.348-.602 0-1.137.144-1.605.426-.47.28-.836.66-1.098 1.129a3.028 3.028 0 0 0-.395 1.496v8.254h-3.351v-8.7c0-.449-.106-.879-.324-1.28a2.462 2.462 0 0 0-.934-.966 2.598 2.598 0 0 0-1.34-.36c-.601 0-1.148.145-1.637.427-.488.28-.867.66-1.144 1.129a2.892 2.892 0 0 0-.414 1.496v8.254h-3.352ZM72.844 22.723c.808 0 1.523-.184 2.144-.551a3.765 3.765 0 0 0 1.446-1.512c.34-.644.507-1.36.507-2.144 0-.848-.18-1.59-.539-2.227a3.793 3.793 0 0 0-1.46-1.477c-.618-.343-1.317-.519-2.098-.519-.809 0-1.528.184-2.149.55a3.869 3.869 0 0 0-1.453 1.505c-.347.636-.52 1.359-.52 2.168 0 .824.176 1.558.528 2.199a3.7 3.7 0 0 0 1.473 1.488c.629.344 1.336.52 2.12.52m-.558 3.222c-1.375 0-2.586-.324-3.629-.976a6.498 6.498 0 0 1-2.418-2.66c-.566-1.125-.847-2.391-.847-3.793 0-1.477.3-2.782.894-3.914.598-1.133 1.422-2.004 2.477-2.614 1.05-.61 2.226-.918 3.523-.918.692 0 1.336.102 1.934.301.597.2 1.136.488 1.617.867.48.38.883.828 1.203 1.34l.27-2.082h2.906V25.52h-2.156l-.422-2.297a5.385 5.385 0 0 1-2.196 2.015c-.925.469-1.976.707-3.156.707M88.934 18.441l-4.813-6.945h4.14l2.466 3.453.71 1.352.75-1.352 2.407-3.453h4.16l-4.774 6.945 4.832 7.079h-4.14l-2.484-3.59-.75-1.328-.731 1.328-2.504 3.59h-4.156Zm0 0"></path></g></svg>