<svg xml:space="preserve" viewBox="2000 1800 2500 2300" xmlns="http://www.w3.org/2000/svg"><defs><linearGradient x1="0" y1="0" x2="1" y2="0" gradientUnits="userSpaceOnUse" gradientTransform="rotate(26.365 -1324.041 1704.816) scale(291.8497)" spreadMethod="pad" id="grad1"><stop style="stop-opacity:1;stop-color:#2cf3fd" offset="0"></stop><stop style="stop-opacity:1;stop-color:#2cf3fd" offset=".004"></stop><stop style="stop-opacity:1;stop-color:#3d92ff" offset=".494"></stop><stop style="stop-opacity:1;stop-color:#3d92ff" offset=".494"></stop><stop style="stop-opacity:1;stop-color:#ff7ffe" offset="1"></stop></linearGradient></defs><path d="M667.139 920.367c-6.673-1.549-13.259-6.552-19.733-15.009-2.969 2.959-6.496 4.482-10.607 4.565l-8.571-1.639c-1.497 2.825-3.601 4.318-6.26 4.504-3.237.173-6.489-1.579-9.701-5.255-4.48-.039-8.571-1.616-12.273-4.728-3.701-3.138-6.361-6.852-8.033-11.192-1.147-3.244-1.765-6.42-1.831-9.581-.108-5.19 1.447-9.045 4.664-11.509 1.788-1.486 5.656-1.75 11.605-.793-.039-1.949.742-3.705 2.342-5.319 1.601-1.588 3.35-2.415 5.299-2.455 1.817-.037 3.758.765 5.848 2.409 1.61 1.416 3.275 2.91 4.994 4.43 1.636-2.459 3.488-3.34 5.585-2.646 3.262.987 6.083 2.326 8.41 3.991 1.287-2.743 2.458-4.769 3.511-6.082 1.195-.868 2.583-1.292 4.136-1.323.739-.018 3.842.947 9.31 2.89-.251-.732.322-2.3 1.721-4.753-2.18-.93-3.908-1.605-5.103-2.082-11.954-4.578-18.926-10.363-20.889-17.358-.509-1.675.467-4.175 2.956-7.493-5.243-1.209-8.908-2.53-10.993-3.936-2.806-1.893-4.063-4.028-3.744-6.459.783-2.915 2.297-4.897 4.596-5.893-4.077-3.447-6.134-6.04-6.172-7.857-.01-.501.06-.978.153-1.455-4.59-.273-8.243-1.04-10.931-2.33-8.062-3.708-12.819-8.141-14.243-13.303-.209-3.765 1.547-6.804 5.266-9.201-.055-2.661-1.947-6.207-5.677-10.662-3.729-4.455-5.622-8.08-5.681-10.872-.026-1.318.077-2.718.285-4.17.51-4.623 3.11-7.574 7.801-8.885 2.411-.655 5.627-.643 9.619-.012-.153-2.292 1.172-4.508 4.054-6.622.705-.252 1.494-.372 2.337-.39 2.187-.045 5.785 1.936 10.824 5.943.584-.987.991-1.733 1.218-2.213 2.473-4.03 5.991-5.922 10.608-5.674 5.676.383 12.229 3.753 19.607 10.135 2.117-3.442 4.137-5.171 6.088-5.212.841-.017 3.211 1.145 7.133 3.491 1.398-2.509 2.757-4.275 4.054-5.303 2.022-1.65 4.376-2.489 7.037-2.543 3.979-.082 8.011 1.231 12.048 3.994 5.156 3.346 7.99 5.316 8.476 5.912 3.778-4.664 8.865-7.194 15.287-7.564 4.582-.228 9.082.762 13.477 2.989.638.304 1.227.661 1.84 1.017l-.138-.261 8.572 1.642c1.525-2.798 3.602-4.292 6.26-4.48 3.262-.198 6.516 1.553 9.726 5.23 2.507.026 4.888.531 7.149 1.538 3.881-3.506 8.702-6.111 14.518-7.837a27.942 27.942 0 0 1 4.548-.462c5.663-.117 10.909 1.17 15.683 3.892 3.041 1.755 5.837 4.438 8.336 8.024 2.474 3.61 3.757 7.09 3.828 10.515.093 4.479-2.35 8.745-7.354 12.723l.009.369c2.691 1.525 4.549 3.384 5.57 5.551a10.624 10.624 0 0 1 1.179 4.718c.069 3.4-.898 6.345-2.903 8.811 3.382.405 6.829 2.705 10.316 6.903 1.742 2.757 2.921 4.92 3.56 6.489 2.009-2.23 3.807-3.215 5.391-3.012-.613-5.547-.187-9.141 1.23-10.725 1.87-2.595 4.691-3.733 8.467-3.444-.795-2.776-1.311-4.821-1.603-6.132-.693-4.229.452-7.52 3.434-9.875 1.913-1.753 4.674-2.101 8.331-1.095-.435-3.127-.166-5.506.75-7.079 1.169-2.079 2.968-3.039 5.397-2.825-.413-2.18-.587-4.179-.491-5.999.793-8.714 5.077-14.362 12.904-16.949 1.537-.877 3.293-1.335 5.216-1.373 3.398-.071 6.872.99 10.423 3.211 3.808-3.215 8.36-4.891 13.681-5.002 4.004-.081 7.527.768 10.594 2.523 8.316 4.546 12.081 12.084 11.351 22.615-.488 5.703-4.446 10.554-11.874 14.582.516.833 1.004 1.376 1.483 1.604 1.879 2.991 2.128 6.017.741 9.077-2.094 4.496-5.465 7.174-10.165 8.01-1.21.131-2.131.203-2.738.216.912 3.248.914 5.91-.018 7.985-2.192 4.894-5.513 7.44-9.99 7.665 1.419 4.793.783 9.734-1.958 14.825-2.741 5.065-6.643 7.594-11.729 7.594.743 1.435 1.144 3.061 1.181 4.879.059 2.897-.784 5.392-2.56 7.485 5.102.738 8.429 3.567 9.98 8.49 1.125 2.164 1.051 4.958-.198 8.359 7.003-.382 11.524 1.527 13.534 5.703 1.785 3.494 1.671 6.87-.317 10.179 1.381.035 2.725-.13 4.032-.296 3.508-.446 6.746-.891 9.718 2.56 2.733 3.449 4.342 7.289 4.772 11.525.92 3.723.229 7.19-2.131 10.374-5.169 7.487-12.791 11.045-22.84 10.646-7.86-.312-14.394-2.786-19.548-7.399-2.475-2.371-4.148-4.208-5.018-5.535-.97.285-1.942.41-2.891.429-3.029.063-6.031-1.087-8.978-3.425-3.108-3.704-4.638-7.652-4.596-11.896-2.046.412-5.218-.076-9.463-1.438-4.75-1.589-8.231-.456-10.416-6.683l-.632-5.074c-.174-2.051-.26-3.63-.282-4.71a9.59 9.59 0 0 1-2.547.421c-2.055.043-3.931-.287-5.635-.991l-.18.189c.933 4.329 1.048 7.356.372 9.058-1.379 3.428-3.807 5.822-7.282 7.24 1.644 4.315 2.526 3.657 2.618 8.135.12 5.795-1.18 10.488-3.875 14.048-3.673 4.661-8.76 7.06-15.293 7.195-7.01.144-13.765-1.64-20.248-5.38-6.857-4.101-11.39-9.252-13.574-15.506-1.157-3.612-1.466-7.111-.93-10.495-.834-.575-1.589.023-2.258.621-.703.628-1.315 1.256-1.829.524-2.24-3.827-2.674-6.955-1.274-9.409 1.765-2.566 3.976-3.956 6.634-4.116-3.107-3.705-4.641-7.758-4.599-12.134.054-2.531 1.638-4.883 4.757-7.004-6.189-6.196-9.017-11.673-8.51-16.426.781-3.048 3.339-5.524 7.648-7.433-1.93-1.54-3.229-3.148-3.895-4.847a5.277 5.277 0 0 1-.794-2.724c-.041-1.924 1.228-4.322 3.829-7.171l-3.856-3.028c-3.342-3.569-5.034-6.379-5.077-8.461a7.04 7.04 0 0 1 .298-2.193c1.164-2.318 3.601-4.318 7.335-5.975a2.34 2.34 0 0 1-.218-.34l-.026.001c-1.423.03-2.936-.493-4.512-1.514l-8.836-2.9c-.967.467-1.991.568-3.053.219a34.846 34.846 0 0 1-5.448-2.205c-2.187 1.337-4.962 2.211-8.407 2.573-5.916.622-10.739-1.94-14.495-7.686-4.039 3.483-6.903 5.229-8.589 5.264-3.872.08-7.065-1.436-9.529-4.521-1.32 1.107-3.126 1.698-5.419 1.746-1.817.037-4.779-.454-8.911-1.45l-1.4 2.401c-1.403 2.19-3.755 3.214-7.026 3.044l.944 1.06a27.447 27.447 0 0 1 3.391 7.179c4.599-.57 8.373.933 11.345 4.483 4.347 4.996 6.957 8.948 7.888 11.828.257.97-.01 3.373-.772 7.261l1.448-.027c3.411.534 5.699 2.86 6.864 6.947.637 1.541 1.032 2.693 1.151 3.429 1.192-1 2.128-1.601 2.784-1.798a7.007 7.007 0 0 1 1.891-.302c1.449-.031 3.04.491 4.749 1.536a180.223 180.223 0 0 1 4.779 2.985c6.77 4.944 9.857 11.47 9.313 19.599 1.818-.038 3.518.586 5.125 1.87 1.202.819 1.897 1.253 2.004 1.25 3.111 3.916 3.807 8.303 2.09 13.187 1.986 1.778 3.222 2.912 3.705 3.375 2.763 4.793 4.32 10.005 4.674 15.691.393 7.503-2.442 13.228-8.526 17.227-2.026 1.386-5.171 2.242-9.38 2.565-2.283 1.867-6 3.024-11.182 3.5-6.186-.847-10.29-3.134-12.291-6.835-2.513 2.107-5.626 3.2-9.393 3.277-2.292.05-4.46-.276-6.529-.945-.74-.116-1.295-.158-1.638-.15.031 1.448-.246 3.377-.801 5.815-1.163 2.448-2.261 4.104-3.35 4.968-1.581 1.479-3.541 2.224-5.872 2.224-.986 0-2.038-.135-3.157-.401m202.834-15.949a5.606 5.606 0 0 0 7.918-.397 5.559 5.559 0 0 0 1.398-3.087 7.877 7.877 0 0 0 11.03-.638 7.881 7.881 0 0 0-.558-11.129 7.832 7.832 0 0 0-1.098-.822c2.309 2.962 2.235 7.237-.371 10.118-2.328 2.574-5.962 3.233-8.978 1.92.035-1.568-.564-3.142-1.819-4.279a5.6 5.6 0 0 0-.78-.584 5.601 5.601 0 0 1-.264 7.198 5.604 5.604 0 0 1-7.136.982c.197.253.414.495.658.718m-81.101-11.026a6.144 6.144 0 1 0 11.443 4.474c.133-.339.227-.683.297-1.028a6.136 6.136 0 0 1-7.479 2.529 6.143 6.143 0 0 1-3.783-6.931 6.413 6.413 0 0 0-.478.956m-141.568 7.066.185-.004-.188-.18zm4.472-4.089a9.89 9.89 0 0 0 .161-1.725c0-5.494-4.455-9.949-9.951-9.949a9.907 9.907 0 0 0-3.357.592c.001-.042.006-.085.006-.129a7.771 7.771 0 0 0-15.543-.09 6.066 6.066 0 0 0-2.042-.373 6.142 6.142 0 0 0-6.142 6.143c0 .365.038.718.098 1.066a6.14 6.14 0 0 1 6.044-5.08 6.142 6.142 0 0 1 6.047 5.08c.06-.348.098-.701.098-1.066 0-2.5-1.499-4.642-3.643-5.602 1.075-3.003 3.936-5.156 7.31-5.156 3.445 0 6.343 2.251 7.361 5.355-3.629 1.484-6.188 5.047-6.188 9.209 0 .59.062 1.165.16 1.725.817-4.671 4.885-8.226 9.791-8.226 4.905 0 8.973 3.555 9.79 8.226m115.44-15.531c-2.001 5.118.525 10.889 5.645 12.891 5.115 2 10.888-.527 12.889-5.645a9.655 9.655 0 0 0 .478-1.664c-2.461 4.054-7.543 5.88-12.112 4.096-4.569-1.787-7.063-6.577-6.124-11.227-.296.487-.561 1-.776 1.549m-76.948 5.235c3.885 3.886 10.186 3.886 14.072 0 3.885-3.886 3.885-10.186 0-14.071-.418-.417-.867-.78-1.332-1.108 2.724 3.883 2.362 9.271-1.108 12.739-3.469 3.47-8.857 3.834-12.739 1.108.327.467.691.917 1.107 1.332M626.239 873.3l.37-.008-.007-.342zm68.924-24.641c3.637 3.291 4.27 8.655 1.743 12.669.449-.35.88-.735 1.275-1.173 3.687-4.075 3.372-10.367-.704-14.053a9.91 9.91 0 0 0-7.413-2.537c-.696-3.578-3.845-6.281-7.626-6.281a7.774 7.774 0 0 0-7.774 7.773c0 .461.048.909.125 1.347.638-3.649 3.815-6.426 7.649-6.426 2.801 0 5.242 1.493 6.606 3.718a9.89 9.89 0 0 0-5.62 3.109 9.968 9.968 0 0 0-1.04 1.386 9.963 9.963 0 0 1 7.653-1.97c.013.063.038.12.049.183.011-.057.014-.115.023-.172a9.862 9.862 0 0 1 5.054 2.427m158.88-1.884c.098-.56.159-1.134.159-1.725 0-5.495-4.455-9.95-9.95-9.95a9.9 9.9 0 0 0-3.359.594c.001-.044.008-.085.008-.129a7.771 7.771 0 0 0-15.543-.091 6.11 6.11 0 0 0-2.041-.374 6.142 6.142 0 0 0-6.143 6.144c0 .364.037.719.097 1.065a6.143 6.143 0 0 1 6.046-5.079 6.141 6.141 0 0 1 6.046 5.079c.06-.346.097-.701.097-1.065 0-2.5-1.498-4.642-3.641-5.6 1.074-3.005 3.935-5.158 7.309-5.158 3.445 0 6.343 2.252 7.361 5.356-3.629 1.484-6.187 5.046-6.187 9.208 0 .591.06 1.165.159 1.725.817-4.671 4.883-8.225 9.791-8.225 4.905 0 8.971 3.554 9.791 8.225m-68.326-9.491c.077-.44.125-.888.125-1.348a7.774 7.774 0 0 0-7.774-7.773 7.773 7.773 0 0 0-7.773 7.773c0 .46.046.908.125 1.348.639-3.65 3.815-6.427 7.648-6.427 3.833 0 7.01 2.777 7.649 6.427m-130.579-19.531c.076-.437.125-.885.125-1.346a7.774 7.774 0 0 0-15.547 0c0 .461.048.909.124 1.346.64-3.648 3.817-6.424 7.649-6.424s7.01 2.776 7.649 6.424m207.768-31.752c3.321 1.912 4.69 5.905 3.422 9.387a7.83 7.83 0 0 0 .781-1.107 7.774 7.774 0 0 0-2.858-10.615 7.773 7.773 0 0 0-10.615 2.857c-.23.4-.414.811-.565 1.23a7.787 7.787 0 0 1 5.971-2.788c1.315 0 2.643.333 3.864 1.036m-205.916-5.284a9.996 9.996 0 0 0 .158-1.725c0-5.495-4.455-9.95-9.949-9.95a9.903 9.903 0 0 0-3.357.593c.001-.043.006-.086.006-.13a7.771 7.771 0 0 0-7.773-7.772c-4.262 0-7.719 3.432-7.769 7.683a6.095 6.095 0 0 0-2.041-.374 6.143 6.143 0 0 0-6.144 6.143c0 .364.038.719.099 1.065a6.141 6.141 0 0 1 6.045-5.079 6.14 6.14 0 0 1 6.044 5.079c.061-.346.099-.701.099-1.065 0-2.5-1.499-4.641-3.641-5.6 1.073-3.004 3.934-5.157 7.308-5.157 3.445 0 6.344 2.25 7.361 5.356-3.629 1.484-6.187 5.045-6.187 9.208 0 .59.061 1.164.159 1.725.818-4.672 4.885-8.225 9.791-8.225 4.907 0 8.973 3.553 9.791 8.225m106.263-12.785c4.855.717 8.357 4.829 8.484 9.57.178-.54.322-1.1.407-1.683.611-4.122-1.405-8.025-4.782-10.022 1.459-2.921 4.666-4.718 8.073-4.214 3.337.493 5.852 3.038 6.477 6.165a6.138 6.138 0 0 0-4.421 5.015 5.992 5.992 0 0 0-.058 1.066 6.141 6.141 0 0 1 6.723-4.14 6.143 6.143 0 0 1 5.237 5.908c.11-.333.199-.678.253-1.038a6.144 6.144 0 0 0-5.179-6.976 6.174 6.174 0 0 0-2.074.051 7.768 7.768 0 0 0-6.562-8.716 7.774 7.774 0 0 0-8.827 6.552c-.006.043-.007.085-.013.129a9.915 9.915 0 0 0-3.233-1.079c-5.437-.803-10.495 2.952-11.299 8.388a9.912 9.912 0 0 0-.095 1.729c1.341-4.044 5.144-6.813 9.424-6.813.483 0 .972.035 1.465.108m137.554-3.261c.099-.562.16-1.136.16-1.727 0-5.494-4.454-9.949-9.949-9.949-5.496 0-9.95 4.455-9.95 9.949 0 .591.06 1.165.159 1.727.817-4.672 4.884-8.226 9.791-8.226 4.905 0 8.972 3.554 9.789 8.226m-172.17-1.278c.077-.438.124-.887.124-1.347a7.774 7.774 0 1 0-15.546 0c0 .46.048.909.125 1.347.638-3.65 3.816-6.426 7.648-6.426s7.01 2.776 7.649 6.426" style="fill:url(#grad1);stroke:none" transform="matrix(4.66667 0 0 -4.66667 -280 6720)"></path></svg>